<?xml version="1.0" encoding="UTF-8" standalone="no"?>
<svg width="14px" height="10px" viewBox="0 0 14 10" version="1.1" xmlns="http://www.w3.org/2000/svg" xmlns:xlink="http://www.w3.org/1999/xlink">
    <!-- Generator: Sketch 3.8.3 (29802) - http://www.bohemiancoding.com/sketch -->
    <title>behance</title>
    <desc>Created with Sketch.</desc>
    <defs></defs>
    <g id="Page-1" stroke="none" stroke-width="1" fill="none" fill-rule="evenodd">
        <g id="Codesigned" transform="translate(-762.000000, -6693.000000)" fill="#FFFFFF">
            <g id="Footer" transform="translate(599.000000, 6625.000000)">
                <g id="Social" transform="translate(16.000000, 65.000000)">
                    <g id="Twitter_w_x2F__circle" transform="translate(147.000000, 3.000000)">
                        <path d="M5.9497482,4.48333924 C5.9497482,4.48333924 7.22711733,4.38409333 7.22711733,2.82316446 C7.22711733,1.26021017 6.18199713,0.5 4.85736805,0.5 L0.5,0.5 L0.5,9.22688866 L4.85736805,9.22688866 C4.85736805,9.22688866 7.51810364,9.31398201 7.51810364,6.65054585 C7.51742849,6.64987071 7.63355296,4.48333924 5.9497482,4.48333924 L5.9497482,4.48333924 Z M2.42010454,2.05012659 L4.85736805,2.05012659 C4.85736805,2.05012659 5.45014294,2.05012659 5.45014294,2.95751777 C5.45014294,3.86625923 5.10176954,3.99791197 4.70613619,3.99791197 L2.42010454,3.99791197 L2.42010454,2.05012659 L2.42010454,2.05012659 Z M4.73381702,7.67541178 L2.42010454,7.67541178 L2.42010454,5.34279532 L4.85736805,5.34279532 C4.85736805,5.34279532 5.7404541,5.33064276 5.7404541,6.54117281 C5.7404541,7.56198788 5.08084013,7.66798521 4.73381702,7.67541178 L4.73381702,7.67541178 Z M11.065301,2.71919256 C7.84419734,2.71919256 7.84689791,6.07262409 7.84689791,6.07262409 C7.84689791,6.07262409 7.62680154,9.40850192 11.065301,9.40850192 C11.065301,9.40850192 13.9299295,9.57998805 13.9299295,7.08803803 L12.4567692,7.08803803 C12.4567692,7.08803803 12.5053794,8.02716089 11.1145864,8.02716089 C11.1145864,8.02716089 9.64007571,8.12978251 9.64007571,6.50809084 L13.9765144,6.50809084 C13.9771895,6.5074157 14.4551902,2.71919256 11.065301,2.71919256 L11.065301,2.71919256 Z M12.3757521,5.34279532 L9.62522258,5.34279532 C9.62522258,5.34279532 9.80481042,3.99791197 11.098383,3.99791197 C12.3919555,3.99791197 12.3757521,5.34279532 12.3757521,5.34279532 L12.3757521,5.34279532 Z M12.7180492,1.01243296 L9.26334634,1.01243296 L9.26334634,2.0886097 L12.7180492,2.0886097 L12.7180492,1.01243296 L12.7180492,1.01243296 Z" id="behance"></path>
                    </g>
                </g>
            </g>
        </g>
    </g>
</svg>