<?xml version="1.0" encoding="UTF-8" standalone="no"?>
<svg width="16px" height="16px" viewBox="0 0 16 16" version="1.1" xmlns="http://www.w3.org/2000/svg" xmlns:xlink="http://www.w3.org/1999/xlink">
    <!-- Generator: Sketch 3.8.3 (29802) - http://www.bohemiancoding.com/sketch -->
    <title>dribbble</title>
    <desc>Created with Sketch.</desc>
    <defs></defs>
    <g id="Page-1" stroke="none" stroke-width="1" fill="none" fill-rule="evenodd">
        <g id="Codesigned" transform="translate(-663.000000, -6690.000000)" fill="#FFFFFF">
            <g id="Footer" transform="translate(599.000000, 6625.000000)">
                <g id="Social" transform="translate(16.000000, 65.000000)">
                    <g id="dribbble-with-circle" transform="translate(48.000000, 0.000000)">
                        <g id="Dribble_w_x2F__circle">
                            <path d="M8.39,7.973 C8.4395,7.955 8.492,7.9415 8.5445,7.9265 C8.42,7.649 8.282,7.361 8.126,7.0505 C5.306,7.886 2.606,7.8935 2.1245,7.886 C2.12,7.9235 2.12,7.9625 2.12,8 C2.12,9.4175 2.63,10.7795 3.557,11.849 C3.866,11.351 5.504,8.9075 8.39,7.973 L8.39,7.973 Z M4.4345,12.6695 C5.468,13.4615 6.7025,13.88 8,13.88 C8.7755,13.88 9.5285,13.73 10.241,13.4375 C10.142,12.866 9.7985,11.126 9.008,9.0545 C5.8265,10.1795 4.625,12.2975 4.4345,12.6695 L4.4345,12.6695 Z M11.8325,3.5405 C10.766,2.624 9.407,2.12 8,2.12 C7.574,2.12 7.1465,2.1665 6.725,2.261 C7.0325,2.6735 7.973,3.98 8.8565,5.5955 C10.781,4.856 11.651,3.7895 11.8325,3.5405 L11.8325,3.5405 Z M7.5575,5.996 C6.6455,4.388 5.696,3.0635 5.435,2.7095 C3.8345,3.485 2.657,4.9685 2.2655,6.6965 L2.291,6.6965 C2.9,6.6965 5.0645,6.647 7.5575,5.996 L7.5575,5.996 Z M10.271,8.744 C10.9685,10.6835 11.2895,12.2945 11.381,12.8105 C12.659,11.9105 13.532,10.529 13.7945,8.996 C13.5335,8.9165 12.5915,8.6645 11.4065,8.6645 C11.0195,8.6645 10.637,8.6915 10.271,8.744 L10.271,8.744 Z M8,15.0455 C4.112,15.0455 0.9515,11.885 0.9515,8 C0.9515,4.112 4.112,0.9515 8,0.9515 C11.8865,0.9515 15.047,4.1135 15.047,8 C15.047,11.885 11.8865,15.0455 8,15.0455 L8,15.0455 Z M9.383,6.611 C9.5135,6.881 9.635,7.1465 9.746,7.4075 C9.7805,7.493 9.818,7.577 9.8525,7.6625 C10.268,7.613 10.712,7.589 11.1755,7.589 C12.4565,7.589 13.52,7.7765 13.877,7.847 C13.844,6.572 13.3925,5.333 12.599,4.337 C12.359,4.646 11.372,5.7815 9.383,6.611 L9.383,6.611 Z" id="dribbble"></path>
                        </g>
                    </g>
                </g>
            </g>
        </g>
    </g>
</svg>