<?xml version="1.0" encoding="UTF-8" standalone="no"?>
<svg width="15px" height="14px" viewBox="0 0 15 14" version="1.1" xmlns="http://www.w3.org/2000/svg" xmlns:xlink="http://www.w3.org/1999/xlink">
    <!-- Generator: Sketch 3.8.3 (29802) - http://www.bohemiancoding.com/sketch -->
    <title>linkedin</title>
    <desc>Created with Sketch.</desc>
    <defs></defs>
    <g id="Page-1" stroke="none" stroke-width="1" fill="none" fill-rule="evenodd">
        <g id="Codesigned" transform="translate(-713.000000, -6690.000000)" fill="#FFFFFF">
            <g id="Footer" transform="translate(599.000000, 6625.000000)">
                <g id="Social" transform="translate(16.000000, 65.000000)">
                    <g id="linkedin-with-circle" transform="translate(98.000000, 0.000000)">
                        <g id="LinkedIn_w_x2F__circle">
                            <path d="M3.475,13.9685 L0.559,13.9685 L0.559,4.5845 L3.475,4.5845 L3.475,13.9685 L3.475,13.9685 Z M1.999,3.4325 C1.078,3.4325 0.4825,2.78 0.4825,1.973 C0.4825,1.1495 1.096,0.5165 2.0365,0.5165 C2.977,0.5165 3.553,1.1495 3.571,1.973 C3.571,2.78 2.977,3.4325 1.999,3.4325 L1.999,3.4325 Z M14.125,13.9685 L11.209,13.9685 L11.209,8.768 C11.209,7.5575 10.786,6.7355 9.7315,6.7355 C8.926,6.7355 8.4475,7.292 8.236,7.8275 C8.158,8.018 8.1385,8.288 8.1385,8.5565 L8.1385,13.967 L5.221,13.967 L5.221,7.577 C5.221,6.4055 5.1835,5.426 5.1445,4.583 L7.678,4.583 L7.8115,5.8865 L7.87,5.8865 C8.254,5.2745 9.1945,4.3715 10.768,4.3715 C12.6865,4.3715 14.125,5.657 14.125,8.42 L14.125,13.9685 L14.125,13.9685 Z" id="linkedin"></path>
                        </g>
                    </g>
                </g>
            </g>
        </g>
    </g>
</svg>