<?xml version="1.0" encoding="UTF-8" standalone="no"?>
<svg width="14px" height="10px" viewBox="0 0 14 10" version="1.1" xmlns="http://www.w3.org/2000/svg" xmlns:xlink="http://www.w3.org/1999/xlink">
    <!-- Generator: Sketch 3.8.3 (29802) - http://www.bohemiancoding.com/sketch -->
    <title>medium</title>
    <desc>Created with Sketch.</desc>
    <defs></defs>
    <g id="Page-1" stroke="none" stroke-width="1" fill="none" fill-rule="evenodd">
        <g id="Codesigned" transform="translate(-812.000000, -6693.000000)" fill="#FFFFFF">
            <g id="Footer" transform="translate(599.000000, 6625.000000)">
                <g id="Social" transform="translate(16.000000, 65.000000)">
                    <g id="medium-with-circle" transform="translate(197.000000, 3.000000)">
                        <g id="Medium_w_x2F__circle">
                            <path d="M13.3000183,1.5000305 L13.1251526,1.5000305 C13.1251526,1.5000305 12.6000061,1.5000305 12.6000061,2.02517705 L12.6000061,7.97518925 C12.6000061,7.97518925 12.6000061,8.499878 13.1251526,8.499878 L13.3000183,8.499878 L13.3000183,9.8999024 L9.1000366,9.8999024 L9.1000366,8.499878 L9.7999573,8.499878 L9.7999573,1.9900208 L9.73001095,1.9900208 L7.5848389,9.8999024 L5.69564815,9.8999024 L3.56997685,1.9900208 L3.5000305,1.9900208 L3.5000305,8.499878 L4.2000427,8.499878 L4.2000427,9.8999024 L0.6999817,9.8999024 L0.6999817,8.499878 L0.87484735,8.499878 C0.87484735,8.499878 1.3999939,8.499878 1.3999939,7.9748231 L1.3999939,2.0247194 C1.3999939,2.0247194 1.3999939,1.50003065 0.87484735,1.50003065 L0.6999817,1.50003065 L0.6999817,0.1000976 L5.343811,0.1000976 L6.97262575,6.16134635 L7.02627565,6.16134635 L8.6701966,0.1000976 L13.3000184,0.1000976 L13.3000184,1.5000305 L13.3000183,1.5000305 Z" id="medium"></path>
                        </g>
                    </g>
                </g>
            </g>
        </g>
    </g>
</svg>