<?xml version="1.0" encoding="UTF-8" standalone="no"?>
<svg width="15px" height="12px" viewBox="0 0 15 12" version="1.1" xmlns="http://www.w3.org/2000/svg" xmlns:xlink="http://www.w3.org/1999/xlink">
    <!-- Generator: Sketch 3.8.3 (29802) - http://www.bohemiancoding.com/sketch -->
    <title>twitter</title>
    <desc>Created with Sketch.</desc>
    <defs></defs>
    <g id="Page-1" stroke="none" stroke-width="1" fill="none" fill-rule="evenodd">
        <g id="Codesigned" transform="translate(-615.000000, -6692.000000)" fill="#FFFFFF">
            <g id="Footer" transform="translate(599.000000, 6625.000000)">
                <g id="Social" transform="translate(16.000000, 65.000000)">
                    <g id="twitter-with-circle" transform="translate(0.000000, 2.000000)">
                        <g id="Twitter_w_x2F__circle">
                            <path d="M12.8575,3.396 C12.8635,3.519 12.865,3.642 12.865,3.762 C12.865,7.512 10.0135,11.8335 4.7965,11.8335 C3.1945,11.8335 1.7035,11.3655 0.4495,10.5585 C0.67,10.5855 0.8965,10.596 1.126,10.596 C2.455,10.596 3.6775,10.1445 4.648,9.3825 C3.4075,9.3585 2.3605,8.5395 1.999,7.4145 C2.1715,7.446 2.3485,7.464 2.5315,7.464 C2.7895,7.464 3.0415,7.4295 3.2785,7.365 C1.981,7.104 1.003,5.958 1.003,4.584 L1.003,4.5495 C1.3855,4.761 1.8235,4.89 2.2885,4.905 C1.5265,4.395 1.027,3.528 1.027,2.5425 C1.027,2.0235 1.1665,1.5345 1.411,1.116 C2.8105,2.832 4.8985,3.96 7.2565,4.0815 C7.207,3.873 7.183,3.657 7.183,3.4335 C7.183,1.869 8.452,0.597 10.0195,0.597 C10.834,0.597 11.572,0.942 12.0895,1.494 C12.736,1.365 13.342,1.131 13.8895,0.8055 C13.678,1.467 13.2295,2.0235 12.643,2.376 C13.2175,2.3055 13.7635,2.154 14.272,1.9275 C13.8925,2.496 13.411,2.997 12.8575,3.396 L12.8575,3.396 Z" id="twitter"></path>
                        </g>
                    </g>
                </g>
            </g>
        </g>
    </g>
</svg>